<svg version="1.1" baseProfile="tiny" xmlns="http://www.w3.org/2000/svg" xmlns:xlink="http://www.w3.org/1999/xlink" xml:space="preserve" viewBox="0 0 100 100"><path fill="#700" d="M50,0C22.386,0,0,22.386,0,50s22.385,50,50,50s50-22.386,50-50S77.614,0,50,0z M48.353,6.174 c-3.567,19.299-20.474,33.92-40.806,33.92c-0.092,0-0.184-0.006-0.276-0.007C11.646,21.152,28.27,6.916,48.353,6.174z M7.271,59.912c0.092-0.001,0.184-0.007,0.276-0.007c20.332,0,37.239,14.621,40.806,33.921 C28.27,93.084,11.646,78.848,7.271,59.912z M29.953,50c0-11.072,8.975-20.047,20.047-20.047c11.071,0,20.047,8.975,20.047,20.047 S61.071,70.047,50,70.047C38.928,70.047,29.953,61.072,29.953,50z M51.646,93.826c3.568-19.3,20.475-33.921,40.807-33.921 c0.093,0,0.184,0.006,0.276,0.007C88.354,78.848,71.73,93.084,51.646,93.826z M92.453,40.094c-20.332,0-37.238-14.621-40.807-33.92 C71.73,6.916,88.354,21.152,92.729,40.087C92.637,40.088,92.546,40.094,92.453,40.094z"/><circle fill="#700" cx="50" cy="50" r="14.2"/></svg>
