<svg version="1.1" baseProfile="tiny" xmlns="http://www.w3.org/2000/svg" xmlns:xlink="http://www.w3.org/1999/xlink" viewBox="0 0 100 100" xml:space="preserve"><path d="M100,49.998C100,22.386,77.615,0,49.999,0C22.385,0,0,22.386,0,49.998C0,77.615,22.385,100,49.999,100 C77.615,100,100,77.615,100,49.998 M84.641,74.438c-1.19,1.46-2.689,2.73-4.499,3.808c-1.809,1.083-3.685,1.973-5.629,2.674 c-0.81,0.273-1.61,0.515-2.39,0.732c-0.785,0.215-1.555,0.404-2.312,0.566c-0.703,0.108-1.431,0.204-2.188,0.285 c-0.756,0.08-1.539,0.119-2.349,0.119c-0.324,0-0.662-0.011-1.013-0.039c-0.352-0.026-0.688-0.042-1.013-0.042 c-2.325-0.214-4.485-0.808-6.483-1.783c-1.999-0.971-3.32-2.538-3.97-4.698c-2,1.999-4.308,3.593-6.929,4.779 c-2.621,1.19-5.307,1.783-8.061,1.783c-1.673,0-3.349-0.269-5.024-0.808c-1.676-0.54-3.269-1.406-4.78-2.593 c-1.568-1.242-2.783-2.715-3.646-4.418c-0.865-1.701-1.297-3.47-1.297-5.307V49.159v-20.42H15.36v-7.943h30.467v22.487v22.484 c0,1.191,0.285,2.016,0.852,2.473c0.565,0.458,1.254,0.69,2.065,0.69c0.271,0,0.527-0.011,0.772-0.043 c0.242-0.027,0.498-0.093,0.768-0.2c0.379-0.108,0.756-0.243,1.135-0.405c0.376-0.163,0.73-0.353,1.054-0.57V20.795h24.55v47.649 c0,0.216,0.082,0.362,0.244,0.442c0.163,0.081,0.35,0.15,0.567,0.205h0.284h0.202c1.079,0,2.118-0.243,3.12-0.727 c0.999-0.491,1.958-1.002,2.877-1.542c0.052-0.053,0.108-0.092,0.162-0.122c0.052-0.028,0.106-0.066,0.163-0.121V74.438z"/></svg>
